STARTFONT 2.1
FONT -FontForge-Fayette Handwritten Script-Book-R-Normal--24-240-75-75-P-88-ISO10646-1
SIZE 24 75 75
FONTBOUNDINGBOX 31 24 -7 -11
COMMENT "Generated by fontforge, http://fontforge.sourceforge.net"
COMMENT "Mia Cinelli, 2012"
STARTPROPERTIES 39
FOUNDRY "FontForge"
FAMILY_NAME "Fayette Handwritten Script"
WEIGHT_NAME "Book"
SLANT "R"
SETWIDTH_NAME "Normal"
ADD_STYLE_NAME ""
PIXEL_SIZE 24
POINT_SIZE 240
RESOLUTION_X 75
RESOLUTION_Y 75
SPACING "P"
AVERAGE_WIDTH 88
CHARSET_REGISTRY "ISO10646"
CHARSET_ENCODING "1"
FONTNAME_REGISTRY ""
CHARSET_COLLECTIONS "ISO10646-1"
FONT_NAME "Fayette-HandwrittenScript"
FACE_NAME "Fayette Handwritten Script Regular"
COPYRIGHT "Mia Cinelli, 2012"
FONT_VERSION "0.000;PS 0.0;hotconv 1.0.72;makeotf.lib2.5.5900 DEVELOPMENT"
FONT_ASCENT 13
FONT_DESCENT 11
UNDERLINE_POSITION -2
UNDERLINE_THICKNESS 1
X_HEIGHT 3
CAP_HEIGHT 10
RAW_ASCENT 551
RAW_DESCENT 448
NORM_SPACE 5
RELATIVE_WEIGHT 40
RELATIVE_SETWIDTH 50
SUPERSCRIPT_X 0
SUPERSCRIPT_Y 8
SUPERSCRIPT_SIZE 14
SUBSCRIPT_X 0
SUBSCRIPT_Y 1
SUBSCRIPT_SIZE 14
AVG_LOWERCASE_WIDTH 63
AVG_UPPERCASE_WIDTH 103
ENDPROPERTIES
CHARS 207
STARTCHAR space
ENCODING 32
SWIDTH 227 0
DWIDTH 5 0
BBX 1 1 0 0
BITMAP
00
ENDCHAR
STARTCHAR exclam
ENCODING 33
SWIDTH 330 0
DWIDTH 8 0
BBX 9 11 4 0
BITMAP
0080
0180
0100
0200
0400
0800
1000
2000
4000
0000
8000
ENDCHAR
STARTCHAR quotedbl
ENCODING 34
SWIDTH 102 0
DWIDTH 2 0
BBX 3 1 4 10
BITMAP
A0
ENDCHAR
STARTCHAR numbersign
ENCODING 35
SWIDTH 493 0
DWIDTH 12 0
BBX 8 8 2 1
BITMAP
02
00
01
0A
14
28
50
80
ENDCHAR
STARTCHAR dollar
ENCODING 36
SWIDTH 578 0
DWIDTH 14 0
BBX 8 9 5 0
BITMAP
01
0E
12
10
18
10
A8
C8
F0
ENDCHAR
STARTCHAR percent
ENCODING 37
SWIDTH 452 0
DWIDTH 11 0
BBX 8 8 1 0
BITMAP
62
24
08
10
02
05
40
80
ENDCHAR
STARTCHAR ampersand
ENCODING 38
SWIDTH 408 0
DWIDTH 10 0
BBX 8 10 4 -1
BITMAP
14
04
04
30
40
9A
82
80
6A
01
ENDCHAR
STARTCHAR parenleft
ENCODING 40
SWIDTH 289 0
DWIDTH 7 0
BBX 10 13 3 -2
BITMAP
0040
0100
0200
0400
0800
1000
0000
2000
0000
4000
0000
0000
8000
ENDCHAR
STARTCHAR parenright
ENCODING 41
SWIDTH 480 0
DWIDTH 12 0
BBX 10 13 2 -2
BITMAP
0040
0040
0000
0000
0080
0000
0100
0200
0000
0000
1000
2000
8000
ENDCHAR
STARTCHAR asterisk
ENCODING 42
SWIDTH 363 0
DWIDTH 9 0
BBX 2 1 8 8
BITMAP
C0
ENDCHAR
STARTCHAR plus
ENCODING 43
SWIDTH 466 0
DWIDTH 11 0
BBX 3 3 4 2
BITMAP
20
40
80
ENDCHAR
STARTCHAR comma
ENCODING 44
SWIDTH 116 0
DWIDTH 3 0
BBX 1 1 4 0
BITMAP
80
ENDCHAR
STARTCHAR hyphen
ENCODING 45
SWIDTH 299 0
DWIDTH 7 0
BBX 4 1 1 2
BITMAP
F0
ENDCHAR
STARTCHAR period
ENCODING 46
SWIDTH 150 0
DWIDTH 4 0
BBX 1 1 4 0
BITMAP
80
ENDCHAR
STARTCHAR slash
ENCODING 47
SWIDTH 398 0
DWIDTH 10 0
BBX 9 10 4 0
BITMAP
0080
0100
0200
0400
0000
0800
1000
2000
4000
8000
ENDCHAR
STARTCHAR zero
ENCODING 48
SWIDTH 263 0
DWIDTH 6 0
BBX 5 4 0 0
BITMAP
48
88
88
70
ENDCHAR
STARTCHAR one
ENCODING 49
SWIDTH 181 0
DWIDTH 4 0
BBX 6 7 0 0
BITMAP
04
00
08
10
20
40
80
ENDCHAR
STARTCHAR two
ENCODING 50
SWIDTH 262 0
DWIDTH 6 0
BBX 6 6 0 0
BITMAP
38
48
10
20
60
9C
ENDCHAR
STARTCHAR three
ENCODING 51
SWIDTH 247 0
DWIDTH 6 0
BBX 6 7 0 0
BITMAP
18
04
08
C8
C8
C0
60
ENDCHAR
STARTCHAR four
ENCODING 52
SWIDTH 381 0
DWIDTH 9 0
BBX 9 10 0 -4
BITMAP
0080
0100
0200
2400
2800
7E00
0000
2000
4000
8000
ENDCHAR
STARTCHAR five
ENCODING 53
SWIDTH 256 0
DWIDTH 6 0
BBX 7 6 0 0
BITMAP
0A
10
28
88
80
E0
ENDCHAR
STARTCHAR six
ENCODING 54
SWIDTH 261 0
DWIDTH 6 0
BBX 4 7 1 0
BITMAP
10
20
40
C0
90
C0
F0
ENDCHAR
STARTCHAR seven
ENCODING 55
SWIDTH 219 0
DWIDTH 5 0
BBX 9 11 -3 -7
BITMAP
0C80
1100
0200
0400
0000
0800
1000
2000
4000
8000
8000
ENDCHAR
STARTCHAR eight
ENCODING 56
SWIDTH 282 0
DWIDTH 7 0
BBX 5 7 1 0
BITMAP
38
40
60
20
70
90
60
ENDCHAR
STARTCHAR nine
ENCODING 57
SWIDTH 254 0
DWIDTH 6 0
BBX 7 11 -2 -7
BITMAP
12
32
22
1C
00
08
10
20
40
00
80
ENDCHAR
STARTCHAR colon
ENCODING 58
SWIDTH 367 0
DWIDTH 9 0
BBX 1 4 6 0
BITMAP
80
00
00
80
ENDCHAR
STARTCHAR semicolon
ENCODING 59
SWIDTH 276 0
DWIDTH 7 0
BBX 2 4 5 0
BITMAP
40
00
00
80
ENDCHAR
STARTCHAR less
ENCODING 60
SWIDTH 367 0
DWIDTH 9 0
BBX 4 4 0 0
BITMAP
20
80
40
10
ENDCHAR
STARTCHAR equal
ENCODING 61
SWIDTH 516 0
DWIDTH 12 0
BBX 6 1 4 3
BITMAP
FC
ENDCHAR
STARTCHAR greater
ENCODING 62
SWIDTH 575 0
DWIDTH 14 0
BBX 4 4 2 0
BITMAP
40
10
20
80
ENDCHAR
STARTCHAR question
ENCODING 63
SWIDTH 297 0
DWIDTH 7 0
BBX 8 11 4 0
BITMAP
0C
12
21
03
06
0C
10
20
00
00
80
ENDCHAR
STARTCHAR at
ENCODING 64
SWIDTH 536 0
DWIDTH 13 0
BBX 9 9 5 0
BITMAP
3B00
4080
4C00
9200
A000
A480
0000
4000
1E00
ENDCHAR
STARTCHAR A
ENCODING 65
SWIDTH 519 0
DWIDTH 12 0
BBX 17 15 2 -4
BITMAP
000080
000100
000200
000000
000400
000800
003000
005000
012000
C46000
504000
008000
008000
010000
010000
ENDCHAR
STARTCHAR B
ENCODING 66
SWIDTH 469 0
DWIDTH 11 0
BBX 12 12 3 -1
BITMAP
03C0
0810
1020
2050
4090
00E0
8140
8240
9480
9080
7F00
0400
ENDCHAR
STARTCHAR C
ENCODING 67
SWIDTH 455 0
DWIDTH 11 0
BBX 9 11 5 0
BITMAP
0700
0880
0100
2200
4080
C400
8500
8000
8080
4100
3C00
ENDCHAR
STARTCHAR D
ENCODING 68
SWIDTH 609 0
DWIDTH 15 0
BBX 14 11 4 0
BITMAP
000C
0024
0044
0004
4084
8484
8C08
0808
1C10
1220
61C0
ENDCHAR
STARTCHAR E
ENCODING 69
SWIDTH 427 0
DWIDTH 10 0
BBX 10 11 5 0
BITMAP
0300
0480
0800
0C00
3000
4000
CA00
9240
8280
9E00
5000
ENDCHAR
STARTCHAR F
ENCODING 70
SWIDTH 427 0
DWIDTH 10 0
BBX 10 11 5 0
BITMAP
0380
0840
1C40
0940
2A00
3500
0E00
0000
9000
A000
C000
ENDCHAR
STARTCHAR G
ENCODING 71
SWIDTH 622 0
DWIDTH 15 0
BBX 13 11 4 0
BITMAP
0040
0000
0148
0100
01A0
0108
0108
0208
1F10
C820
63C0
ENDCHAR
STARTCHAR H
ENCODING 72
SWIDTH 430 0
DWIDTH 10 0
BBX 13 12 4 -1
BITMAP
0018
0028
0C50
1480
0440
0580
0E00
2A00
9000
2400
C400
0400
ENDCHAR
STARTCHAR I
ENCODING 73
SWIDTH 356 0
DWIDTH 9 0
BBX 10 11 3 0
BITMAP
0040
0080
0140
0200
0200
0300
0900
0A00
0400
8800
E000
ENDCHAR
STARTCHAR J
ENCODING 74
SWIDTH 302 0
DWIDTH 7 0
BBX 11 17 -2 -6
BITMAP
00E0
0020
0100
0100
0100
0120
0120
0020
0180
04C0
0880
2080
4140
8200
0420
0800
E000
ENDCHAR
STARTCHAR K
ENCODING 75
SWIDTH 600 0
DWIDTH 14 0
BBX 22 14 0 -3
BITMAP
000004
000008
000010
000240
000280
001500
002E00
008A00
019200
C6A200
D1C200
000200
000200
000200
ENDCHAR
STARTCHAR L
ENCODING 76
SWIDTH 434 0
DWIDTH 10 0
BBX 12 14 5 -3
BITMAP
0010
0030
3850
10A0
0F00
0100
0200
0400
0800
9000
E800
0400
0000
0200
ENDCHAR
STARTCHAR M
ENCODING 77
SWIDTH 611 0
DWIDTH 15 0
BBX 16 14 4 -3
BITMAP
1833
2557
1099
0232
0424
0844
0088
1080
2110
4220
8420
0000
0000
0020
ENDCHAR
STARTCHAR N
ENCODING 78
SWIDTH 530 0
DWIDTH 13 0
BBX 19 11 3 0
BITMAP
182080
336120
10A200
030000
064400
044800
081000
10A000
20C000
400000
810000
ENDCHAR
STARTCHAR O
ENCODING 79
SWIDTH 483 0
DWIDTH 12 0
BBX 10 11 5 0
BITMAP
0780
1C40
2440
4840
4040
9040
9080
8080
8100
C200
7800
ENDCHAR
STARTCHAR P
ENCODING 80
SWIDTH 444 0
DWIDTH 11 0
BBX 11 11 4 0
BITMAP
0380
0A20
1220
2240
2420
2A20
0580
0800
C000
5000
C000
ENDCHAR
STARTCHAR Q
ENCODING 81
SWIDTH 501 0
DWIDTH 12 0
BBX 10 12 5 -1
BITMAP
0780
1800
2040
6040
4040
8040
8080
8080
8100
EE00
7C00
0300
ENDCHAR
STARTCHAR R
ENCODING 82
SWIDTH 620 0
DWIDTH 15 0
BBX 14 13 5 -2
BITMAP
0038
0104
0424
0044
2004
4088
0160
8280
8480
8880
E080
0080
0080
ENDCHAR
STARTCHAR S
ENCODING 83
SWIDTH 528 0
DWIDTH 13 0
BBX 16 11 2 0
BITMAP
0001
0002
000A
0012
0024
0040
0288
0490
0490
8C20
A3C0
ENDCHAR
STARTCHAR T
ENCODING 84
SWIDTH 368 0
DWIDTH 9 0
BBX 9 11 4 0
BITMAP
0180
3000
2080
0080
0100
0100
6200
9200
8400
0800
7000
ENDCHAR
STARTCHAR U
ENCODING 85
SWIDTH 472 0
DWIDTH 11 0
BBX 14 11 3 0
BITMAP
0184
030C
0418
0830
1060
20C0
0180
0100
8210
8E20
71C0
ENDCHAR
STARTCHAR V
ENCODING 86
SWIDTH 305 0
DWIDTH 7 0
BBX 12 11 4 0
BITMAP
60C0
4130
2200
2200
0400
4800
1000
A000
C000
C000
8000
ENDCHAR
STARTCHAR W
ENCODING 87
SWIDTH 733 0
DWIDTH 18 0
BBX 24 11 0 0
BITMAP
000C34
001044
0020A6
005141
00A388
004210
010400
020820
021840
102880
C3CE00
ENDCHAR
STARTCHAR X
ENCODING 88
SWIDTH 395 0
DWIDTH 10 0
BBX 11 11 3 0
BITMAP
4080
A160
9200
0400
0C00
0800
1400
1000
2200
4000
8100
ENDCHAR
STARTCHAR Y
ENCODING 89
SWIDTH 400 0
DWIDTH 10 0
BBX 15 15 0 -4
BITMAP
00C6
0108
0204
0418
0420
0450
0010
00A0
0600
0840
2080
4100
0200
8400
9800
ENDCHAR
STARTCHAR Z
ENCODING 90
SWIDTH 651 0
DWIDTH 16 0
BBX 14 11 4 0
BITMAP
3004
2014
1078
0040
0080
0100
0200
0400
2818
9C18
E1D0
ENDCHAR
STARTCHAR bracketleft
ENCODING 91
SWIDTH 245 0
DWIDTH 6 0
BBX 12 11 0 0
BITMAP
0070
0080
0100
0200
0400
0800
0000
0000
2000
4000
C000
ENDCHAR
STARTCHAR backslash
ENCODING 92
SWIDTH 800 0
DWIDTH 19 0
BBX 8 9 1 2
BITMAP
80
40
20
00
00
08
04
02
01
ENDCHAR
STARTCHAR bracketright
ENCODING 93
SWIDTH 605 0
DWIDTH 15 0
BBX 11 11 4 0
BITMAP
00E0
0000
0040
0080
0100
0200
0400
0000
0000
1000
E000
ENDCHAR
STARTCHAR asciicircum
ENCODING 94
SWIDTH 474 0
DWIDTH 11 0
BBX 3 2 7 6
BITMAP
C0
20
ENDCHAR
STARTCHAR underscore
ENCODING 95
SWIDTH 452 0
DWIDTH 11 0
BBX 7 1 4 0
BITMAP
FE
ENDCHAR
STARTCHAR grave
ENCODING 96
SWIDTH 367 0
DWIDTH 9 0
BBX 3 2 1 5
BITMAP
80
60
ENDCHAR
STARTCHAR a
ENCODING 97
SWIDTH 272 0
DWIDTH 7 0
BBX 9 4 2 0
BITMAP
2880
4800
9000
6C00
ENDCHAR
STARTCHAR b
ENCODING 98
SWIDTH 277 0
DWIDTH 7 0
BBX 9 11 2 0
BITMAP
0080
0080
0000
0400
0800
1000
2000
6080
4F00
9000
6000
ENDCHAR
STARTCHAR c
ENCODING 99
SWIDTH 230 0
DWIDTH 6 0
BBX 7 4 3 0
BITMAP
D2
80
00
F0
ENDCHAR
STARTCHAR d
ENCODING 100
SWIDTH 275 0
DWIDTH 7 0
BBX 11 11 3 0
BITMAP
0020
0060
0000
0100
0200
0400
0800
5800
9000
1200
D800
ENDCHAR
STARTCHAR e
ENCODING 101
SWIDTH 230 0
DWIDTH 6 0
BBX 7 4 3 0
BITMAP
42
A4
88
F0
ENDCHAR
STARTCHAR f
ENCODING 102
SWIDTH 215 0
DWIDTH 5 0
BBX 18 22 -7 -11
BITMAP
000040
000080
000140
000200
000400
000800
001800
001800
002000
006000
00F800
010000
028000
050000
080000
120000
240000
280000
400000
800000
C00000
800000
ENDCHAR
STARTCHAR g
ENCODING 103
SWIDTH 280 0
DWIDTH 7 0
BBX 15 15 -4 -11
BITMAP
00B0
0122
0224
01F0
0080
0100
0300
0600
0800
1400
2800
5000
2000
8000
8000
ENDCHAR
STARTCHAR h
ENCODING 104
SWIDTH 322 0
DWIDTH 8 0
BBX 10 11 2 0
BITMAP
0080
0280
0400
0800
1000
1000
3000
6840
5400
E400
C600
ENDCHAR
STARTCHAR i
ENCODING 105
SWIDTH 150 0
DWIDTH 4 0
BBX 5 7 2 0
BITMAP
08
00
00
20
40
80
60
ENDCHAR
STARTCHAR j
ENCODING 106
SWIDTH 158 0
DWIDTH 4 0
BBX 14 18 -7 -11
BITMAP
0004
0000
0000
0010
0024
0048
0060
0080
0200
0500
0A00
1400
2400
0800
5000
A000
4000
8000
ENDCHAR
STARTCHAR k
ENCODING 107
SWIDTH 200 0
DWIDTH 5 0
BBX 9 11 2 0
BITMAP
0080
0180
0200
0400
0800
1800
3000
2800
7200
C400
3000
ENDCHAR
STARTCHAR l
ENCODING 108
SWIDTH 180 0
DWIDTH 4 0
BBX 8 11 3 0
BITMAP
01
02
04
0A
14
28
50
44
88
90
E0
ENDCHAR
STARTCHAR m
ENCODING 109
SWIDTH 453 0
DWIDTH 11 0
BBX 10 4 2 0
BITMAP
2CC0
6640
CC80
88C0
ENDCHAR
STARTCHAR n
ENCODING 110
SWIDTH 301 0
DWIDTH 7 0
BBX 9 4 2 0
BITMAP
2C00
5480
C100
8600
ENDCHAR
STARTCHAR o
ENCODING 111
SWIDTH 241 0
DWIDTH 6 0
BBX 8 5 2 0
BITMAP
30
6D
48
80
60
ENDCHAR
STARTCHAR p
ENCODING 112
SWIDTH 245 0
DWIDTH 6 0
BBX 13 15 -5 -11
BITMAP
00D0
0090
0138
02E0
0200
0200
0800
1400
0000
2800
4000
5000
A000
4000
8000
ENDCHAR
STARTCHAR q
ENCODING 113
SWIDTH 279 0
DWIDTH 7 0
BBX 13 14 -2 -10
BITMAP
0288
0480
0900
07C0
0200
0400
0200
0800
1400
2000
2800
5000
0000
8000
ENDCHAR
STARTCHAR r
ENCODING 114
SWIDTH 235 0
DWIDTH 6 0
BBX 6 5 4 0
BITMAP
80
C4
80
00
A0
ENDCHAR
STARTCHAR s
ENCODING 115
SWIDTH 191 0
DWIDTH 5 0
BBX 6 4 2 0
BITMAP
20
50
94
F0
ENDCHAR
STARTCHAR t
ENCODING 116
SWIDTH 193 0
DWIDTH 5 0
BBX 20 11 1 0
BITMAP
004000
008000
008010
3F0180
460000
8C0000
180000
110000
220000
240000
380000
ENDCHAR
STARTCHAR u
ENCODING 117
SWIDTH 279 0
DWIDTH 7 0
BBX 7 4 3 0
BITMAP
48
90
12
DC
ENDCHAR
STARTCHAR v
ENCODING 118
SWIDTH 297 0
DWIDTH 7 0
BBX 7 4 4 0
BITMAP
D6
20
C0
80
ENDCHAR
STARTCHAR w
ENCODING 119
SWIDTH 387 0
DWIDTH 9 0
BBX 12 4 2 0
BITMAP
2490
4860
8900
6E00
ENDCHAR
STARTCHAR x
ENCODING 120
SWIDTH 279 0
DWIDTH 7 0
BBX 8 4 3 0
BITMAP
ED
90
30
40
ENDCHAR
STARTCHAR y
ENCODING 121
SWIDTH 283 0
DWIDTH 7 0
BBX 11 15 -3 -11
BITMAP
0120
0260
0040
0380
00C0
0180
0200
0200
0400
0000
0800
5000
2000
4000
8000
ENDCHAR
STARTCHAR z
ENCODING 122
SWIDTH 229 0
DWIDTH 6 0
BBX 11 15 -4 -11
BITMAP
01A0
0140
00C0
0040
00C0
0180
0300
0400
0A00
1400
0000
0800
5000
2000
C000
ENDCHAR
STARTCHAR braceleft
ENCODING 123
SWIDTH 191 0
DWIDTH 5 0
BBX 11 14 1 -2
BITMAP
0020
00C0
0100
0200
0000
1000
0000
2000
2000
4000
4000
0000
0000
8000
ENDCHAR
STARTCHAR bar
ENCODING 124
SWIDTH 386 0
DWIDTH 9 0
BBX 1 4 8 7
BITMAP
80
80
80
80
ENDCHAR
STARTCHAR braceright
ENCODING 125
SWIDTH 422 0
DWIDTH 10 0
BBX 10 13 2 -2
BITMAP
0040
0040
0000
0000
0080
0000
0100
0100
0400
0800
1000
2000
8000
ENDCHAR
STARTCHAR asciitilde
ENCODING 126
SWIDTH 367 0
DWIDTH 9 0
BBX 2 1 1 2
BITMAP
C0
ENDCHAR
STARTCHAR exclamdown
ENCODING 161
SWIDTH 482 0
DWIDTH 12 0
BBX 10 11 -1 -7
BITMAP
0040
0000
0100
0200
0400
0800
1800
3000
2000
4000
8000
ENDCHAR
STARTCHAR cent
ENCODING 162
SWIDTH 532 0
DWIDTH 13 0
BBX 4 5 2 0
BITMAP
10
B0
40
00
E0
ENDCHAR
STARTCHAR sterling
ENCODING 163
SWIDTH 394 0
DWIDTH 9 0
BBX 7 11 0 0
BITMAP
1C
22
22
22
20
20
F8
40
40
80
B8
ENDCHAR
STARTCHAR currency
ENCODING 164
SWIDTH 800 0
DWIDTH 19 0
BBX 5 6 3 0
BITMAP
F8
88
80
00
88
F8
ENDCHAR
STARTCHAR yen
ENCODING 165
SWIDTH 624 0
DWIDTH 15 0
BBX 15 16 -2 -5
BITMAP
00C2
018A
0204
0008
0410
0450
0310
00E0
0220
0840
2080
4100
0300
8400
9800
4000
ENDCHAR
STARTCHAR brokenbar
ENCODING 166
SWIDTH 379 0
DWIDTH 9 0
BBX 1 11 7 0
BITMAP
80
80
80
80
80
00
00
80
80
80
80
ENDCHAR
STARTCHAR section
ENCODING 167
SWIDTH 923 0
DWIDTH 22 0
BBX 9 11 5 0
BITMAP
0300
0480
0400
0C00
1200
0200
1200
1C00
8000
8000
7000
ENDCHAR
STARTCHAR dieresis
ENCODING 168
SWIDTH 367 0
DWIDTH 9 0
BBX 1 1 2 6
BITMAP
00
ENDCHAR
STARTCHAR copyright
ENCODING 169
SWIDTH 685 0
DWIDTH 16 0
BBX 9 9 6 0
BITMAP
3200
4000
8C80
9200
A000
A200
8080
4100
3E00
ENDCHAR
STARTCHAR ordfeminine
ENCODING 170
SWIDTH 802 0
DWIDTH 19 0
BBX 4 3 5 7
BITMAP
50
80
50
ENDCHAR
STARTCHAR guillemotleft
ENCODING 171
SWIDTH 380 0
DWIDTH 9 0
BBX 4 3 5 1
BITMAP
50
A0
50
ENDCHAR
STARTCHAR logicalnot
ENCODING 172
SWIDTH 438 0
DWIDTH 11 0
BBX 2 2 8 2
BITMAP
80
40
ENDCHAR
STARTCHAR registered
ENCODING 174
SWIDTH 648 0
DWIDTH 16 0
BBX 10 9 6 0
BITMAP
3300
4080
8900
9400
AC40
B400
4480
4100
1E00
ENDCHAR
STARTCHAR macron
ENCODING 175
SWIDTH 583 0
DWIDTH 14 0
BBX 4 1 5 9
BITMAP
F0
ENDCHAR
STARTCHAR degree
ENCODING 176
SWIDTH 538 0
DWIDTH 13 0
BBX 1 1 3 6
BITMAP
80
ENDCHAR
STARTCHAR plusminus
ENCODING 177
SWIDTH 361 0
DWIDTH 9 0
BBX 5 4 2 2
BITMAP
10
F8
40
40
ENDCHAR
STARTCHAR acute
ENCODING 180
SWIDTH 367 0
DWIDTH 9 0
BBX 3 2 1 5
BITMAP
20
80
ENDCHAR
STARTCHAR paragraph
ENCODING 182
SWIDTH 292 0
DWIDTH 7 0
BBX 8 8 1 0
BITMAP
1B
26
2C
30
28
50
20
C0
ENDCHAR
STARTCHAR periodcentered
ENCODING 183
SWIDTH 367 0
DWIDTH 9 0
BBX 1 1 2 3
BITMAP
80
ENDCHAR
STARTCHAR cedilla
ENCODING 184
SWIDTH 367 0
DWIDTH 9 0
BBX 2 2 2 -3
BITMAP
40
80
ENDCHAR
STARTCHAR ordmasculine
ENCODING 186
SWIDTH 747 0
DWIDTH 18 0
BBX 3 3 5 7
BITMAP
40
A0
40
ENDCHAR
STARTCHAR guillemotright
ENCODING 187
SWIDTH 704 0
DWIDTH 17 0
BBX 4 3 4 1
BITMAP
A0
50
50
ENDCHAR
STARTCHAR onequarter
ENCODING 188
SWIDTH 367 0
DWIDTH 9 0
BBX 6 7 0 0
BITMAP
04
08
00
80
08
40
80
ENDCHAR
STARTCHAR onehalf
ENCODING 189
SWIDTH 367 0
DWIDTH 9 0
BBX 6 6 1 0
BITMAP
40
90
20
50
80
0C
ENDCHAR
STARTCHAR threequarters
ENCODING 190
SWIDTH 367 0
DWIDTH 9 0
BBX 7 7 0 0
BITMAP
04
00
00
82
2C
5C
80
ENDCHAR
STARTCHAR questiondown
ENCODING 191
SWIDTH 628 0
DWIDTH 15 0
BBX 6 8 0 -6
BITMAP
04
08
00
20
40
84
80
78
ENDCHAR
STARTCHAR Agrave
ENCODING 192
SWIDTH 247 0
DWIDTH 6 0
BBX 18 18 -4 -5
BITMAP
000300
000040
000080
000180
000300
000600
000400
000800
003000
006000
012000
C44000
D00000
008000
000000
010000
000000
020000
ENDCHAR
STARTCHAR Aacute
ENCODING 193
SWIDTH 257 0
DWIDTH 6 0
BBX 18 18 -4 -5
BITMAP
000040
000100
000080
000180
000300
000600
000400
000800
003000
006000
012000
C44000
D00000
008000
000000
010000
000000
020000
ENDCHAR
STARTCHAR Acircumflex
ENCODING 194
SWIDTH 276 0
DWIDTH 7 0
BBX 18 18 -4 -5
BITMAP
000080
000140
000080
000180
000300
000600
000400
000800
003000
006000
012000
C44000
D00000
008000
000000
010000
000000
020000
ENDCHAR
STARTCHAR Atilde
ENCODING 195
SWIDTH 455 0
DWIDTH 11 0
BBX 18 16 1 -4
BITMAP
000040
000080
000200
000100
000600
000800
001000
003000
00A000
034000
844000
A08000
000000
010000
000000
020000
ENDCHAR
STARTCHAR Adieresis
ENCODING 196
SWIDTH 367 0
DWIDTH 9 0
BBX 18 17 -4 -5
BITMAP
000040
000080
000180
000300
000600
000400
000800
003000
006000
012000
C44000
D00000
008000
000000
010000
000000
020000
ENDCHAR
STARTCHAR Aring
ENCODING 197
SWIDTH 367 0
DWIDTH 9 0
BBX 18 17 -4 -5
BITMAP
000040
000080
000180
000300
000600
000C00
000800
003000
006000
012000
C44000
D00000
008000
000000
010000
000000
020000
ENDCHAR
STARTCHAR AE
ENCODING 198
SWIDTH 556 0
DWIDTH 13 0
BBX 19 14 -2 -3
BITMAP
000100
000300
000400
0003C0
000C40
001400
002C00
00B000
024620
88C800
A09040
019280
008E00
027000
ENDCHAR
STARTCHAR Ccedilla
ENCODING 199
SWIDTH 432 0
DWIDTH 10 0
BBX 10 13 5 -2
BITMAP
0700
1080
2180
4280
4400
8100
8800
8440
8080
8100
7C00
1800
0800
ENDCHAR
STARTCHAR Egrave
ENCODING 200
SWIDTH 230 0
DWIDTH 6 0
BBX 10 13 0 0
BITMAP
0400
0100
0300
04C0
0000
0C00
3000
4000
C800
9040
9280
9E00
5000
ENDCHAR
STARTCHAR Eacute
ENCODING 201
SWIDTH 346 0
DWIDTH 8 0
BBX 10 13 3 0
BITMAP
0180
0600
0380
0880
0800
0C00
2000
4000
9200
8240
A080
9E00
5000
ENDCHAR
STARTCHAR Ecircumflex
ENCODING 202
SWIDTH 343 0
DWIDTH 8 0
BBX 10 13 3 0
BITMAP
0080
0100
0380
0880
0800
0C00
2000
4000
9200
8240
A080
9E00
D000
ENDCHAR
STARTCHAR Edieresis
ENCODING 203
SWIDTH 353 0
DWIDTH 8 0
BBX 10 12 3 0
BITMAP
0280
0380
0880
0800
0C00
2000
4000
8200
9240
A080
9E00
5000
ENDCHAR
STARTCHAR Igrave
ENCODING 204
SWIDTH 324 0
DWIDTH 8 0
BBX 10 13 -1 0
BITMAP
00C0
0000
0040
0080
0140
0100
0080
0000
0100
0A00
0400
C800
7000
ENDCHAR
STARTCHAR Iacute
ENCODING 205
SWIDTH 367 0
DWIDTH 9 0
BBX 11 13 0 0
BITMAP
0060
0000
0040
0080
0140
0140
0180
0000
0100
0A00
0400
C800
7000
ENDCHAR
STARTCHAR Icircumflex
ENCODING 206
SWIDTH 367 0
DWIDTH 9 0
BBX 11 13 1 0
BITMAP
0040
00A0
0040
0140
0100
0280
0200
0300
0B00
0400
0800
9000
E000
ENDCHAR
STARTCHAR Idieresis
ENCODING 207
SWIDTH 367 0
DWIDTH 9 0
BBX 10 11 1 0
BITMAP
00C0
0140
0200
0280
0300
0200
0200
0400
0800
9000
E000
ENDCHAR
STARTCHAR Eth
ENCODING 208
SWIDTH 513 0
DWIDTH 12 0
BBX 14 11 2 0
BITMAP
0018
0024
0044
4084
8008
3FC8
9108
4910
3930
4420
03C0
ENDCHAR
STARTCHAR Ntilde
ENCODING 209
SWIDTH 367 0
DWIDTH 9 0
BBX 19 12 3 0
BITMAP
000200
182080
336120
10A200
030000
064400
044800
081000
10A000
20C000
400000
810000
ENDCHAR
STARTCHAR Ograve
ENCODING 210
SWIDTH 367 0
DWIDTH 9 0
BBX 10 13 -1 0
BITMAP
0300
00C0
0780
0A40
1400
2800
4800
4040
8000
8080
8100
4200
3C00
ENDCHAR
STARTCHAR Oacute
ENCODING 211
SWIDTH 367 0
DWIDTH 9 0
BBX 10 13 -1 0
BITMAP
0180
0400
0780
0A40
1400
2800
4800
4040
8000
8080
8100
4200
3C00
ENDCHAR
STARTCHAR Ocircumflex
ENCODING 212
SWIDTH 367 0
DWIDTH 9 0
BBX 10 13 -1 0
BITMAP
0100
0280
0780
0A40
1400
2800
4840
4040
8000
8080
8100
4200
3C00
ENDCHAR
STARTCHAR Otilde
ENCODING 213
SWIDTH 367 0
DWIDTH 9 0
BBX 10 13 -1 0
BITMAP
0300
0000
0780
0A40
1400
2800
4800
4040
8000
8080
8100
4200
3C00
ENDCHAR
STARTCHAR Odieresis
ENCODING 214
SWIDTH 367 0
DWIDTH 9 0
BBX 10 11 -1 0
BITMAP
0780
0A40
1400
2800
4800
4040
8000
8080
8100
4200
3C00
ENDCHAR
STARTCHAR multiply
ENCODING 215
SWIDTH 302 0
DWIDTH 7 0
BBX 3 3 2 2
BITMAP
60
40
C0
ENDCHAR
STARTCHAR Oslash
ENCODING 216
SWIDTH 516 0
DWIDTH 12 0
BBX 12 11 4 0
BITMAP
03D0
0E20
1060
24A0
2920
4820
4040
5040
6080
6100
BC00
ENDCHAR
STARTCHAR Ugrave
ENCODING 217
SWIDTH 933 0
DWIDTH 22 0
BBX 14 13 3 0
BITMAP
0080
0060
010C
0210
0428
0850
1060
2080
4100
8200
8600
8A20
F1C0
ENDCHAR
STARTCHAR Uacute
ENCODING 218
SWIDTH 367 0
DWIDTH 9 0
BBX 14 13 3 0
BITMAP
0018
0060
010C
0210
0428
0850
1060
2080
4100
8200
8600
8A20
F1C0
ENDCHAR
STARTCHAR Ucircumflex
ENCODING 219
SWIDTH 367 0
DWIDTH 9 0
BBX 14 13 3 0
BITMAP
0020
0050
010C
0210
0428
0850
1060
2080
4100
8200
8600
8A20
F1C0
ENDCHAR
STARTCHAR Udieresis
ENCODING 220
SWIDTH 0 0
DWIDTH 0 0
BBX 14 13 3 0
BITMAP
0010
0000
010C
0210
0428
0850
1060
2080
4100
8200
8600
8A20
F1C0
ENDCHAR
STARTCHAR Yacute
ENCODING 221
SWIDTH 367 0
DWIDTH 9 0
BBX 15 17 0 -4
BITMAP
0006
0010
00C6
0108
0204
0418
0420
0450
0010
00A0
0600
0840
2080
4100
0200
8400
9800
ENDCHAR
STARTCHAR Thorn
ENCODING 222
SWIDTH 491 0
DWIDTH 12 0
BBX 13 12 1 -4
BITMAP
0018
0180
0420
0150
1290
0310
0400
1340
0400
4800
D000
E000
ENDCHAR
STARTCHAR germandbls
ENCODING 223
SWIDTH 338 0
DWIDTH 8 0
BBX 12 11 1 0
BITMAP
0020
0050
0010
00A0
0160
0280
0080
0480
0900
1300
EC00
ENDCHAR
STARTCHAR agrave
ENCODING 224
SWIDTH 262 0
DWIDTH 6 0
BBX 9 6 2 0
BITMAP
1800
0000
2880
4900
9000
EC00
ENDCHAR
STARTCHAR aacute
ENCODING 225
SWIDTH 269 0
DWIDTH 6 0
BBX 8 6 2 0
BITMAP
18
00
68
49
92
EC
ENDCHAR
STARTCHAR acircumflex
ENCODING 226
SWIDTH 275 0
DWIDTH 7 0
BBX 9 6 2 0
BITMAP
0800
0000
2880
4800
9000
6C00
ENDCHAR
STARTCHAR atilde
ENCODING 227
SWIDTH 275 0
DWIDTH 7 0
BBX 9 6 2 0
BITMAP
0400
0000
2880
4900
9000
6C00
ENDCHAR
STARTCHAR adieresis
ENCODING 228
SWIDTH 266 0
DWIDTH 6 0
BBX 9 6 2 0
BITMAP
1400
0000
2880
4800
8000
6C00
ENDCHAR
STARTCHAR aring
ENCODING 229
SWIDTH 270 0
DWIDTH 7 0
BBX 9 6 2 0
BITMAP
0800
0000
6880
4900
9000
EC00
ENDCHAR
STARTCHAR ae
ENCODING 230
SWIDTH 345 0
DWIDTH 8 0
BBX 10 4 3 0
BITMAP
5E40
9080
1900
CE00
ENDCHAR
STARTCHAR ccedilla
ENCODING 231
SWIDTH 470 0
DWIDTH 11 0
BBX 8 6 2 -2
BITMAP
69
42
84
78
30
10
ENDCHAR
STARTCHAR egrave
ENCODING 232
SWIDTH 213 0
DWIDTH 5 0
BBX 7 6 2 0
BITMAP
60
00
70
12
C4
70
ENDCHAR
STARTCHAR eacute
ENCODING 233
SWIDTH 218 0
DWIDTH 5 0
BBX 8 6 2 0
BITMAP
30
00
71
12
C4
70
ENDCHAR
STARTCHAR ecircumflex
ENCODING 234
SWIDTH 213 0
DWIDTH 5 0
BBX 7 6 2 0
BITMAP
10
00
70
12
C4
70
ENDCHAR
STARTCHAR edieresis
ENCODING 235
SWIDTH 235 0
DWIDTH 6 0
BBX 7 4 3 0
BITMAP
C2
A4
88
E0
ENDCHAR
STARTCHAR igrave
ENCODING 236
SWIDTH 147 0
DWIDTH 4 0
BBX 6 7 2 0
BITMAP
60
00
00
24
40
80
E0
ENDCHAR
STARTCHAR iacute
ENCODING 237
SWIDTH 134 0
DWIDTH 3 0
BBX 7 7 2 0
BITMAP
02
18
00
44
48
90
E0
ENDCHAR
STARTCHAR icircumflex
ENCODING 238
SWIDTH 138 0
DWIDTH 3 0
BBX 6 6 2 0
BITMAP
10
00
44
48
90
E0
ENDCHAR
STARTCHAR idieresis
ENCODING 239
SWIDTH 135 0
DWIDTH 3 0
BBX 6 7 2 0
BITMAP
28
00
00
44
48
90
E0
ENDCHAR
STARTCHAR eth
ENCODING 240
SWIDTH 218 0
DWIDTH 5 0
BBX 6 7 2 0
BITMAP
40
20
30
70
C4
90
E0
ENDCHAR
STARTCHAR ntilde
ENCODING 241
SWIDTH 612 0
DWIDTH 15 0
BBX 9 6 2 0
BITMAP
0400
0000
6C00
4480
C900
8600
ENDCHAR
STARTCHAR ograve
ENCODING 242
SWIDTH 233 0
DWIDTH 6 0
BBX 8 7 2 0
BITMAP
20
18
30
6D
48
90
60
ENDCHAR
STARTCHAR oacute
ENCODING 243
SWIDTH 233 0
DWIDTH 6 0
BBX 8 7 2 0
BITMAP
18
00
30
6D
48
90
60
ENDCHAR
STARTCHAR ocircumflex
ENCODING 244
SWIDTH 230 0
DWIDTH 6 0
BBX 8 7 2 0
BITMAP
18
00
30
6D
48
90
60
ENDCHAR
STARTCHAR otilde
ENCODING 245
SWIDTH 232 0
DWIDTH 6 0
BBX 8 6 2 0
BITMAP
04
30
6D
48
90
60
ENDCHAR
STARTCHAR odieresis
ENCODING 246
SWIDTH 229 0
DWIDTH 6 0
BBX 8 5 2 0
BITMAP
30
6D
48
80
60
ENDCHAR
STARTCHAR divide
ENCODING 247
SWIDTH 367 0
DWIDTH 9 0
BBX 1 4 2 2
BITMAP
80
00
00
80
ENDCHAR
STARTCHAR oslash
ENCODING 248
SWIDTH 228 0
DWIDTH 5 0
BBX 6 5 2 0
BITMAP
20
30
44
90
A0
ENDCHAR
STARTCHAR ugrave
ENCODING 249
SWIDTH 268 0
DWIDTH 6 0
BBX 9 7 2 0
BITMAP
4000
1000
0000
4480
4800
9800
6C00
ENDCHAR
STARTCHAR uacute
ENCODING 250
SWIDTH 281 0
DWIDTH 7 0
BBX 9 7 2 0
BITMAP
1800
0000
0000
4480
4800
9800
6C00
ENDCHAR
STARTCHAR ucircumflex
ENCODING 251
SWIDTH 282 0
DWIDTH 7 0
BBX 9 7 2 0
BITMAP
1800
0000
0000
4480
4800
9800
6C00
ENDCHAR
STARTCHAR udieresis
ENCODING 252
SWIDTH 270 0
DWIDTH 7 0
BBX 9 7 2 0
BITMAP
1000
0000
0000
4480
4800
9800
6C00
ENDCHAR
STARTCHAR yacute
ENCODING 253
SWIDTH 367 0
DWIDTH 9 0
BBX 12 18 -3 -11
BITMAP
0030
00C0
0000
0120
0240
0040
03A0
00C0
0180
0200
0200
0400
0000
0800
5000
2000
4000
8000
ENDCHAR
STARTCHAR thorn
ENCODING 254
SWIDTH 225 0
DWIDTH 5 0
BBX 14 16 -5 -10
BITMAP
0040
0040
00D0
0114
0128
03E0
0600
0000
0C00
1400
0000
2800
5000
0000
A000
4000
ENDCHAR
STARTCHAR ydieresis
ENCODING 255
SWIDTH 367 0
DWIDTH 9 0
BBX 11 18 -3 -11
BITMAP
0180
0020
0000
0120
0240
0040
03A0
00C0
0180
0200
0200
0400
0000
0800
5000
2000
4000
8000
ENDCHAR
STARTCHAR dotlessi
ENCODING 305
SWIDTH 136 0
DWIDTH 3 0
BBX 5 4 2 0
BITMAP
40
88
90
E0
ENDCHAR
STARTCHAR circumflex
ENCODING 710
SWIDTH 367 0
DWIDTH 9 0
BBX 3 2 1 5
BITMAP
C0
20
ENDCHAR
STARTCHAR caron
ENCODING 711
SWIDTH 367 0
DWIDTH 9 0
BBX 2 1 1 5
BITMAP
C0
ENDCHAR
STARTCHAR breve
ENCODING 728
SWIDTH 367 0
DWIDTH 9 0
BBX 3 2 1 5
BITMAP
A0
C0
ENDCHAR
STARTCHAR dotaccent
ENCODING 729
SWIDTH 367 0
DWIDTH 9 0
BBX 1 2 2 5
BITMAP
80
80
ENDCHAR
STARTCHAR ring
ENCODING 730
SWIDTH 420 0
DWIDTH 10 0
BBX 2 2 2 5
BITMAP
C0
C0
ENDCHAR
STARTCHAR ogonek
ENCODING 731
SWIDTH 367 0
DWIDTH 9 0
BBX 2 2 1 -2
BITMAP
C0
80
ENDCHAR
STARTCHAR tilde
ENCODING 732
SWIDTH 367 0
DWIDTH 9 0
BBX 2 1 2 5
BITMAP
C0
ENDCHAR
STARTCHAR hungarumlaut
ENCODING 733
SWIDTH 97 0
DWIDTH 2 0
BBX 2 1 1 8
BITMAP
C0
ENDCHAR
STARTCHAR mu
ENCODING 956
SWIDTH 255 0
DWIDTH 6 0
BBX 9 5 1 -1
BITMAP
2400
0480
4900
FA00
8000
ENDCHAR
STARTCHAR quoteleft
ENCODING 8216
SWIDTH 134 0
DWIDTH 3 0
BBX 1 2 2 8
BITMAP
80
80
ENDCHAR
STARTCHAR quoteright
ENCODING 8217
SWIDTH 367 0
DWIDTH 9 0
BBX 1 1 6 8
BITMAP
80
ENDCHAR
STARTCHAR minus
ENCODING 8722
SWIDTH 488 0
DWIDTH 12 0
BBX 1 1 4 4
BITMAP
00
ENDCHAR
STARTCHAR .notdef
ENCODING -1
SWIDTH 500 0
DWIDTH 12 0
BBX 10 24 1 -11
BITMAP
FFC0
8040
8040
8040
8040
8040
8040
8040
8040
8040
8040
8040
8040
8040
8040
8040
8040
8040
8040
8040
8040
8040
8040
FFC0
ENDCHAR
STARTCHAR f2
ENCODING -1
SWIDTH 313 0
DWIDTH 8 0
BBX 19 22 -5 -11
BITMAP
000060
000080
000140
000200
000400
000D00
000800
001880
002100
00E200
0CF800
010000
028000
050000
080000
120000
140000
200000
400000
800000
800000
800000
ENDCHAR
STARTCHAR t2
ENCODING -1
SWIDTH 190 0
DWIDTH 5 0
BBX 8 11 3 0
BITMAP
01
02
06
0C
18
30
60
44
80
90
E0
ENDCHAR
STARTCHAR quotations
ENCODING -1
SWIDTH 60 0
DWIDTH 1 0
BBX 2 3 1 7
BITMAP
80
C0
80
ENDCHAR
STARTCHAR r2
ENCODING -1
SWIDTH 190 0
DWIDTH 5 0
BBX 9 5 0 0
BITMAP
1000
1880
3000
5000
9400
ENDCHAR
STARTCHAR t3
ENCODING -1
SWIDTH 196 0
DWIDTH 5 0
BBX 18 11 3 0
BITMAP
010000
020000
060040
3C0600
180000
300000
600000
440000
800000
900000
E00000
ENDCHAR
STARTCHAR em
ENCODING -1
SWIDTH 877 0
DWIDTH 21 0
BBX 1 1 20 3
BITMAP
00
ENDCHAR
STARTCHAR en
ENCODING -1
SWIDTH 606 0
DWIDTH 15 0
BBX 8 1 2 2
BITMAP
FF
ENDCHAR
STARTCHAR quotations2
ENCODING -1
SWIDTH 213 0
DWIDTH 5 0
BBX 3 2 3 8
BITMAP
A0
20
ENDCHAR
STARTCHAR '
ENCODING -1
SWIDTH 252 0
DWIDTH 6 0
BBX 1 2 8 7
BITMAP
80
80
ENDCHAR
ENDFONT
